<svg width="451" height="80" viewBox="0 0 451 80" fill="none" xmlns="http://www.w3.org/2000/svg">
<path fill-rule="evenodd" clip-rule="evenodd" d="M47.3984 0.0651855H38.1795L38.2353 0C22.619 0 15.8864 2.82156 13.0928 16.5569L12.2361 20.2817H4.33011L1.62961 32.9461H9.63799L0 78.5752H17.8605L27.4892 32.9461H36.3934C31.8072 39.7425 29.7985 47.8762 29.7985 54.7178C29.7985 71.8147 41.7366 79.9348 57.325 79.9348C72.8385 79.9348 82.3402 71.7634 87.2977 61.9992C87.2825 62.35 87.271 62.7009 87.2634 63.0521C87.2634 74.5245 93.4186 79.9348 104.025 79.9348V80C113.98 80 119.995 75.7816 123.72 71.1256L122.1 78.5753H139.523L151.889 20.3469H134.029L127.51 50.8719C125.34 61.2641 120.256 66.451 113.114 66.451C108.141 66.451 105.757 63.5922 105.757 58.0701C105.81 55.6262 106.138 53.1959 106.735 50.8253L113.253 20.3004H95.3928L91.3468 39.5788C89.4646 25.5013 78.4226 18.7918 64.2531 18.7918C54.4742 18.7918 47.0654 22.0275 41.672 26.8597L43.0776 20.3003H30.199L30.7391 17.3856C31.8193 12.9438 33.2254 12.6178 39.6135 12.6178H44.6979L47.3984 0.0651855ZM62.9494 32.6482C53.209 32.6482 48.2271 42.7052 48.2271 53.8517C48.2271 61.9719 51.8029 66.0785 58.4703 66.0785C68.2108 66.0785 73.1927 56.0215 73.1927 44.8656C73.1927 36.7548 69.6169 32.6482 62.9494 32.6482Z" fill="currentColor"></path>
<path d="M410.207 0.0744927H428.059V78.5286H410.207V0.0744927Z" fill="currentColor"></path>
<path fill-rule="evenodd" clip-rule="evenodd" d="M378.1 30.5901C372.364 30.5901 368.359 33.5048 367.707 39.1386H351.446L342.369 78.5287H321.584L313.799 35.5628L306.005 78.5287H285.342L271.923 20.3004H290.212L297.894 59.8021L304.599 20.3004H323L329.816 59.8021L337.499 20.3004H355.788L353.14 31.7886C357.112 24.1907 366.422 18.4658 379.608 18.4658C396.277 18.4658 405.915 25.1705 405.58 42.9286L405.365 55.5837C405.263 63.1637 405.58 73.5466 406.66 78.5286H389.135L388.92 71.4887C384.59 77.6626 377.662 79.9347 369.365 79.9347C358.33 79.9347 349.242 73.4163 349.242 62.8378C349.242 48.553 365.37 43.7853 387.98 42.165V39.8928C387.98 33.0764 384.516 30.5808 378.137 30.5808L378.1 30.5901ZM375.865 67.829C382.998 67.829 388.418 64.8026 388.418 54.0937V52.6597C375.967 53.7399 367.633 55.3695 367.633 61.5341C367.633 65.3241 371.209 67.8104 375.865 67.8104V67.829Z" fill="currentColor"></path>
<path d="M450.762 0.0744927H432.901V78.5286H450.762V0.0744927Z" fill="currentColor"></path>
<path fill-rule="evenodd" clip-rule="evenodd" d="M239.683 28.0945C243.576 23.2243 249.2 19.1176 258.94 19.1176C269.547 19.1176 275.702 24.528 275.702 36.1029C275.643 39.3816 275.247 42.6457 274.52 45.8433L267.601 78.5752H249.74L256.259 48.2737C256.84 45.8983 257.153 43.4649 257.19 41.0196C257.19 35.6093 254.806 32.9088 249.833 32.9088C242.803 32.9088 237.607 37.8814 235.437 48.2737L228.918 78.5752H211.114L211.124 78.5286H199.977C188.514 78.5286 183.42 76.7966 183.42 68.8906C183.489 66.6328 183.779 64.3872 184.286 62.186L189.389 38.3192C187.357 37.9358 185.292 37.7549 183.224 37.779C175.654 37.779 170.346 40.3678 168.614 49.0373L162.337 78.5752H144.486L156.815 20.3096H174.136L171.892 30.9999C175.98 24.7235 182.572 19.6392 191.447 19.6392H193.365L196.624 4.37668H214.476L211.021 20.291H223.481L227.773 0.0651548H245.634L239.683 28.0945ZM220.796 32.9461H208.311L202.789 59.0012C202.592 59.964 202.483 60.9427 202.463 61.9252C202.463 64.9982 204.307 65.6501 209.065 65.6501H213.856L220.796 32.9461Z" fill="currentColor"></path>
</svg>